<?xml version="1.0" encoding="utf-8"?>
<!-- Generator: Adobe Illustrator 28.0.0, SVG Export Plug-In . SVG Version: 6.00 Build 0)  -->
<svg version="1.1" id="Слой_1" xmlns="http://www.w3.org/2000/svg" xmlns:xlink="http://www.w3.org/1999/xlink" x="0px" y="0px"
	 viewBox="0 0 626 669.7" style="enable-background:new 0 0 626 669.7;" xml:space="preserve">
<style type="text/css">
	.st0{fill:none;stroke:#FFFFFF;stroke-width:15;stroke-miterlimit:10;}
</style>
<path class="st0" d="M523.4,52.9h95.9L614,456.7c-0.3,30.1-7.3,60-20.5,87.4c-9.2,19.1-20.8,38.8-33.1,49.5
	c-28.2,24.8-78.1,59.7-117,60.5c-30.4,0.9-149.5,2.3-200,3.3c-23.6,0.3-47.1-2.7-69.8-9.5c-32.4-9.8-89.1-37.9-114.8-74.6
	c-47-66.5-52.2-91.6-48.2-169.2s54.2-154.3,106.6-182S190,188.4,262,188.4s170.6-0.9,170.6-0.9l0.7,88.1H253.2
	c-24.8,0-49.3,5.1-71.3,15.8c-19.9,9.8-41.1,25.1-54.8,49.9c-32.8,59-23,123.3-7,156.1s49,62,99.6,68c50.5,6,197.9,3.3,216.5-0.6
	c23.9-5.1,80.5-26.3,86.4-80.6C525.5,454,523.4,52.9,523.4,52.9z"/>
<path class="st0" d="M372.2,365.1H256.3c-31.2,0-56.3,24.4-56.3,54.9v54.9h172.5c31.2,0,56.3-24.4,56.3-54.9l0,0
	C428.5,389.8,403.1,365.1,372.2,365.1z"/>
</svg>
