<?xml version="1.0" encoding="utf-8"?>
<!-- Generator: Adobe Illustrator 28.0.0, SVG Export Plug-In . SVG Version: 6.00 Build 0)  -->
<svg version="1.1" id="Слой_1" xmlns="http://www.w3.org/2000/svg" xmlns:xlink="http://www.w3.org/1999/xlink" x="0px" y="0px"
	 viewBox="0 0 497 669.7" style="enable-background:new 0 0 497 669.7;" xml:space="preserve">
<style type="text/css">
	.st0{fill:none;stroke:#FFFFFF;stroke-width:15;stroke-miterlimit:10;}
</style>
<path class="st0" d="M11.1,662.9h91.2V485.4l145.7-0.9l114.4,178.4h117.3L350.5,481c0,0,81.4-34.2,85.2-87.8
	c1.7-25.8,9.6-78.8-8.4-118.5c-19.7-43.4-68.4-71.8-95-76.2c-15.4-2.6-321.2-1.4-321.2-1.4l0.6,95c0,0,279.2,1.4,304.7,1.7
	c10.7,0,28.7,26.1,29,44.6c0.9,57.9-32.4,62.6-63.4,62c-27.2-0.6-89.5-0.3-144,0c-38.8,0.3-57.4-0.6-71,1.2
	c-15.4,1.7-36.5,14.8-45.8,33.3c-10.7,21.4-7.8,50.1-7.2,69.8C15.1,540.1,11.1,662.9,11.1,662.9z"/>
</svg>
